<?xml version="1.0" encoding="utf-8"?>
<!-- Generator: Adobe Illustrator 23.0.3, SVG Export Plug-In . SVG Version: 6.00 Build 0)  -->
<svg version="1.1" id="Layer_1" xmlns="http://www.w3.org/2000/svg" xmlns:xlink="http://www.w3.org/1999/xlink" x="0px" y="0px"
	 viewBox="0 0 145.18 50.39" style="enable-background:new 0 0 145.18 50.39;" xml:space="preserve">
<style type="text/css">
	.st0{fill:#FFFFFF;}
</style>
<polygon class="st0" points="11.63,0 0,50.39 8.06,50.39 19.7,0 "/>
<polygon class="st0" points="121.77,0 110.14,50.39 118.2,50.39 129.83,0 "/>
<polygon class="st0" points="51.03,0 39.4,50.38 27.77,0 19.7,0 31.34,50.39 39.39,50.39 39.4,50.39 47.45,50.39 59.09,0 "/>
<polygon class="st0" points="82.37,0 74.76,32.94 67.16,0 59.1,0 70.73,50.39 70.74,50.39 78.79,50.39 78.8,50.39 90.43,0 "/>
<polygon class="st0" points="90.44,0 102.08,50.39 110.14,50.39 98.51,0 "/>
<polygon class="st0" points="129.85,0 137.12,31.5 145.18,31.5 137.91,0 "/>
</svg>
